<svg xmlns="http://www.w3.org/2000/svg" width="720" height="420" viewBox="0 0 720 420" role="img" aria-labelledby="title desc">
  <title id="title">Website API integration illustration</title>
  <desc id="desc">A browser layout connected to API service blocks.</desc>
  <rect width="720" height="420" rx="32" fill="#eff6ff"/>
  <rect x="74" y="78" width="342" height="256" rx="24" fill="#ffffff" stroke="#bfdbfe" stroke-width="4"/>
  <rect x="74" y="78" width="342" height="56" rx="24" fill="#1d4ed8"/>
  <rect x="112" y="164" width="110" height="110" rx="18" fill="#dbeafe"/>
  <rect x="246" y="166" width="126" height="22" rx="11" fill="#60a5fa"/>
  <rect x="246" y="208" width="104" height="18" rx="9" fill="#93c5fd"/>
  <rect x="246" y="244" width="86" height="34" rx="17" fill="#14b8a6"/>
  <rect x="486" y="92" width="138" height="70" rx="18" fill="#ffffff" stroke="#60a5fa" stroke-width="4"/>
  <rect x="486" y="194" width="138" height="70" rx="18" fill="#ffffff" stroke="#60a5fa" stroke-width="4"/>
  <rect x="486" y="296" width="138" height="70" rx="18" fill="#ffffff" stroke="#60a5fa" stroke-width="4"/>
  <path d="M416 206 C446 140 456 128 486 128" fill="none" stroke="#2563eb" stroke-width="8" stroke-linecap="round"/>
  <path d="M416 206 C452 206 460 230 486 230" fill="none" stroke="#2563eb" stroke-width="8" stroke-linecap="round"/>
  <path d="M416 206 C446 274 456 332 486 332" fill="none" stroke="#2563eb" stroke-width="8" stroke-linecap="round"/>
  <text x="526" y="136" fill="#1e3a8a" font-family="Arial" font-size="20" font-weight="700">API</text>
  <text x="510" y="238" fill="#1e3a8a" font-family="Arial" font-size="20" font-weight="700">Data</text>
  <text x="510" y="340" fill="#1e3a8a" font-family="Arial" font-size="20" font-weight="700">UI</text>
</svg>
