<svg xmlns="http://www.w3.org/2000/svg" width="720" height="420" viewBox="0 0 720 420" role="img" aria-labelledby="title desc">
  <title id="title">Student calendar app illustration</title>
  <desc id="desc">A calendar board with colored class tasks and reminder notes.</desc>
  <rect width="720" height="420" rx="32" fill="#f5f3ff"/>
  <rect x="92" y="66" width="536" height="294" rx="26" fill="#ffffff" stroke="#ddd6fe" stroke-width="4"/>
  <rect x="92" y="66" width="536" height="70" rx="26" fill="#6d28d9"/>
  <text x="132" y="113" fill="#ffffff" font-family="Arial" font-size="30" font-weight="700">June Study Plan</text>
  <g fill="#ede9fe" stroke="#c4b5fd" stroke-width="2">
    <rect x="128" y="164" width="82" height="62" rx="12"/>
    <rect x="228" y="164" width="82" height="62" rx="12"/>
    <rect x="328" y="164" width="82" height="62" rx="12"/>
    <rect x="428" y="164" width="82" height="62" rx="12"/>
    <rect x="528" y="164" width="62" height="62" rx="12"/>
    <rect x="128" y="246" width="82" height="62" rx="12"/>
    <rect x="228" y="246" width="82" height="62" rx="12"/>
    <rect x="328" y="246" width="82" height="62" rx="12"/>
    <rect x="428" y="246" width="82" height="62" rx="12"/>
    <rect x="528" y="246" width="62" height="62" rx="12"/>
  </g>
  <rect x="242" y="184" width="54" height="20" rx="10" fill="#14b8a6"/>
  <rect x="342" y="266" width="54" height="20" rx="10" fill="#f59e0b"/>
  <circle cx="558" cy="196" r="12" fill="#ef4444"/>
</svg>
